<svg xmlns="http://www.w3.org/2000/svg" xmlns:xlink="http://www.w3.org/1999/xlink" width="500" zoomAndPan="magnify" viewBox="0 0 375 374.999991" height="500" preserveAspectRatio="xMidYMid meet" version="1.0"><defs><clipPath id="3838e40920"><path d="M 41.007812 72.101562 L 257 72.101562 L 257 285.851562 L 41.007812 285.851562 Z M 41.007812 72.101562 " clip-rule="nonzero"/></clipPath><clipPath id="96992d83c3"><path d="M 78.144531 192 L 172.644531 192 L 172.644531 285.746094 L 78.144531 285.746094 Z M 78.144531 192 " clip-rule="nonzero"/></clipPath><clipPath id="a8e32cdcc1"><path d="M 58.261719 89.359375 L 274.261719 89.359375 L 274.261719 303.109375 L 58.261719 303.109375 Z M 58.261719 89.359375 " clip-rule="nonzero"/></clipPath><clipPath id="ee2e6e720e"><path d="M 0.261719 0.359375 L 215.957031 0.359375 L 215.957031 214 L 0.261719 214 Z M 0.261719 0.359375 " clip-rule="nonzero"/></clipPath><clipPath id="f8e99a496c"><rect x="0" width="217" y="0" height="215"/></clipPath><clipPath id="294c93fb23"><path d="M 215 273 L 244 273 L 244 301.300781 L 215 301.300781 Z M 215 273 " clip-rule="nonzero"/></clipPath><clipPath id="b6a6317eb7"><path d="M 288 273 L 316 273 L 316 301.300781 L 288 301.300781 Z M 288 273 " clip-rule="nonzero"/></clipPath><clipPath id="451135395b"><path d="M 181.882812 246 L 266 246 L 266 268 L 181.882812 268 Z M 181.882812 246 " clip-rule="nonzero"/></clipPath><clipPath id="d8e1f0465e"><path d="M 279 218.050781 L 282 218.050781 L 282 230 L 279 230 Z M 279 218.050781 " clip-rule="nonzero"/></clipPath></defs><g clip-path="url(#3838e40920)"><path fill="#ffffff" d="M 114.242188 285.496094 L 41.007812 285.496094 L 183.488281 72.257812 L 256.722656 72.257812 Z M 114.242188 285.496094 " fill-opacity="1" fill-rule="nonzero"/></g><g clip-path="url(#96992d83c3)"><path fill="#d73339" d="M 110.257812 285.574219 L 78.144531 285.574219 L 140.621094 192.070312 L 172.734375 192.070312 Z M 110.257812 285.574219 " fill-opacity="1" fill-rule="nonzero"/></g><g clip-path="url(#a8e32cdcc1)"><g transform="matrix(1, 0, 0, 1, 58, 89)"><g clip-path="url(#f8e99a496c)"><g clip-path="url(#ee2e6e720e)"><path fill="#ffffff" d="M 142.71875 213.753906 L 215.957031 213.753906 L 73.476562 0.515625 L 0.238281 0.515625 Z M 142.71875 213.753906 " fill-opacity="1" fill-rule="nonzero"/></g></g></g></g><path fill="#ffffff" d="M 333.910156 281.214844 C 333.878906 279.839844 333.851562 279.851562 332.507812 279.570312 C 332.324219 279.53125 332.074219 279.339844 332.035156 279.171875 C 331.449219 276.78125 330.972656 274.363281 330.3125 271.992188 C 329.675781 269.695312 328.863281 267.449219 328.117188 265.1875 C 327.914062 264.578125 327.480469 264.160156 326.890625 263.90625 C 323.628906 262.503906 320.371094 261.101562 317.109375 259.695312 C 316.257812 259.328125 315.351562 259.101562 314.667969 258.363281 C 311.546875 255.003906 308.421875 251.648438 305.246094 248.335938 C 302.277344 245.242188 299.308594 242.136719 295.933594 239.464844 C 294.757812 238.53125 293.523438 237.800781 291.921875 237.859375 C 289.890625 237.933594 287.851562 237.90625 285.816406 237.921875 C 285.722656 237.921875 285.625 237.894531 285.40625 237.863281 C 285.773438 237.597656 286.019531 237.375 286.304688 237.21875 C 287.195312 236.734375 287.496094 236.015625 287.25 235.042969 C 286.835938 233.390625 286.035156 232.054688 284.253906 231.628906 C 282.121094 231.121094 279.976562 231.152344 277.828125 231.566406 C 276.875 231.753906 275.964844 232.015625 275.414062 232.863281 C 275.03125 233.457031 274.699219 234.109375 274.480469 234.777344 C 274.089844 235.96875 274.375 236.628906 275.417969 237.316406 C 275.652344 237.46875 275.878906 237.636719 276.238281 237.890625 C 248.492188 237.890625 220.921875 237.890625 193.351562 237.890625 C 195.082031 238 196.816406 238.097656 198.550781 238.148438 C 203.027344 238.265625 207.507812 238.34375 211.984375 238.480469 C 217.367188 238.640625 222.746094 238.847656 228.128906 239.027344 C 232.882812 239.183594 237.636719 239.328125 242.390625 239.476562 C 247.238281 239.625 252.082031 239.769531 256.929688 239.917969 C 261.792969 240.0625 266.660156 240.214844 271.523438 240.359375 C 277.015625 240.523438 282.511719 240.671875 288.003906 240.832031 C 289.761719 240.882812 291.519531 240.9375 293.273438 241.019531 C 293.527344 241.03125 293.820312 241.15625 294.007812 241.324219 C 295.933594 243.046875 297.929688 244.710938 299.742188 246.554688 C 303.929688 250.8125 308.03125 255.15625 312.148438 259.484375 C 312.988281 260.367188 313.867188 261.128906 315.070312 261.484375 C 315.84375 261.714844 316.582031 262.050781 317.335938 262.347656 C 317.554688 262.4375 317.765625 262.550781 317.976562 262.65625 C 317.960938 262.683594 317.945312 262.710938 317.929688 262.738281 C 303.457031 262.738281 288.988281 262.738281 274.617188 262.738281 C 275.070312 262.773438 275.625 262.835938 276.175781 262.855469 C 282.761719 263.058594 289.347656 263.253906 295.929688 263.453125 C 299.3125 263.558594 302.699219 263.660156 306.082031 263.773438 C 310.59375 263.921875 315.105469 264.113281 319.621094 264.207031 C 321.28125 264.242188 322.832031 264.53125 324.277344 265.355469 C 324.714844 265.605469 325.144531 265.867188 325.664062 266.175781 C 323.605469 265.863281 321.683594 265.542969 319.75 265.285156 C 318.160156 265.074219 316.558594 264.941406 314.957031 264.773438 C 314.535156 264.730469 314.367188 264.917969 314.328125 265.339844 C 314.265625 266.09375 314.738281 266.542969 315.226562 266.960938 C 316.898438 268.390625 318.890625 269.21875 320.949219 269.871094 C 323.058594 270.539062 325.1875 271.128906 327.433594 271.074219 C 327.519531 271.070312 327.660156 271.152344 327.683594 271.222656 C 327.902344 271.898438 328.097656 272.582031 328.304688 273.273438 C 324.382812 273.273438 320.5625 273.273438 316.742188 273.273438 C 318.59375 273.46875 320.449219 273.621094 322.304688 273.765625 C 324.296875 273.921875 326.285156 274.0625 328.277344 274.222656 C 328.390625 274.230469 328.550781 274.34375 328.585938 274.445312 C 328.695312 274.75 328.753906 275.070312 328.835938 275.40625 C 326.101562 275.40625 323.445312 275.40625 320.675781 275.40625 C 320.847656 275.464844 320.914062 275.503906 320.984375 275.511719 C 323.535156 275.78125 326.089844 276.054688 328.644531 276.300781 C 328.96875 276.328125 329.097656 276.429688 329.160156 276.730469 C 329.320312 277.464844 329.515625 278.195312 329.683594 278.929688 C 329.859375 279.703125 330.019531 280.484375 330.195312 281.296875 C 326.574219 281.296875 323.0625 281.296875 319.523438 281.296875 C 319.453125 280.984375 319.417969 280.726562 319.332031 280.488281 C 317.570312 275.550781 314.324219 271.960938 309.550781 269.765625 C 307.054688 268.617188 304.417969 268.222656 301.6875 268.222656 C 288.363281 268.222656 275.035156 268.210938 261.707031 268.199219 C 260.746094 268.199219 259.785156 268.199219 258.828125 268.199219 C 258.824219 268.226562 258.824219 268.253906 258.820312 268.28125 C 270.722656 268.789062 282.625 269.292969 294.671875 269.804688 C 294.414062 269.96875 294.265625 270.0625 294.121094 270.15625 C 293.285156 270.6875 292.457031 271.238281 291.601562 271.746094 C 291.367188 271.886719 291.0625 271.976562 290.785156 271.976562 C 284.9375 271.976562 279.085938 271.964844 273.238281 271.957031 C 270.289062 271.953125 267.34375 271.957031 264.398438 271.957031 C 264.394531 271.988281 264.394531 272.023438 264.394531 272.050781 C 272.828125 272.390625 281.269531 272.730469 289.816406 273.074219 C 289.210938 273.796875 288.710938 274.425781 288.171875 275.019531 C 288.035156 275.171875 287.789062 275.308594 287.59375 275.304688 C 280.335938 275.296875 273.082031 275.265625 265.824219 275.246094 C 263.476562 275.238281 261.125 275.246094 258.777344 275.246094 C 258.777344 275.277344 258.773438 275.308594 258.773438 275.339844 C 268.199219 275.707031 277.625 276.070312 287.140625 276.4375 C 284.859375 279.972656 284.0625 283.859375 284.265625 287.957031 C 271.914062 287.957031 259.648438 287.957031 247.339844 287.957031 C 247.339844 287.75 247.351562 287.585938 247.339844 287.425781 C 247.242188 285.953125 247.253906 284.464844 247.023438 283.015625 C 246.335938 278.730469 244.210938 275.210938 240.90625 272.433594 C 237.5 269.574219 233.539062 268.214844 229.074219 268.21875 C 213.691406 268.226562 198.308594 268.207031 182.925781 268.199219 C 182.722656 268.199219 182.511719 268.199219 182.308594 268.199219 C 182.308594 268.230469 182.308594 268.261719 182.308594 268.292969 C 195.117188 268.945312 207.925781 269.601562 220.761719 270.257812 C 220.722656 270.324219 220.710938 270.382812 220.675781 270.414062 C 220.578125 270.496094 220.476562 270.582031 220.363281 270.640625 C 218.617188 271.582031 217.15625 272.871094 215.839844 274.339844 C 215.683594 274.515625 215.378906 274.65625 215.144531 274.65625 C 205.574219 274.660156 196.003906 274.648438 186.4375 274.636719 C 186.128906 274.636719 185.824219 274.636719 185.519531 274.636719 C 185.519531 274.660156 185.519531 274.6875 185.519531 274.710938 C 195.089844 275.234375 204.65625 275.757812 214.347656 276.285156 C 214.121094 276.632812 213.949219 276.816406 213.867188 277.03125 C 213.578125 277.78125 213.113281 278.136719 212.265625 277.945312 C 211.878906 277.855469 211.457031 277.914062 211.050781 277.914062 C 203.367188 277.894531 195.683594 277.882812 188.003906 277.867188 C 187.804688 277.867188 187.605469 277.867188 187.410156 277.867188 C 187.410156 277.902344 187.40625 277.933594 187.40625 277.96875 C 195.792969 278.507812 204.179688 279.046875 212.640625 279.59375 C 211.257812 282.746094 211.335938 286.085938 211.394531 289.386719 C 204.570312 289.386719 197.851562 289.386719 191.128906 289.386719 C 191.125 289.421875 191.121094 289.457031 191.117188 289.492188 C 198.710938 290.339844 206.300781 291.191406 213.933594 292.046875 C 213.933594 291.425781 213.921875 290.855469 213.9375 290.285156 C 213.976562 288.511719 213.835938 286.710938 214.101562 284.972656 C 214.769531 280.628906 216.972656 277.136719 220.621094 274.667969 C 224.234375 272.21875 228.242188 271.359375 232.535156 272.335938 C 238.398438 273.671875 242.273438 277.25 244.148438 282.957031 C 244.894531 285.226562 244.871094 287.570312 244.765625 289.921875 C 244.738281 290.578125 244.761719 291.238281 244.761719 291.925781 C 258.777344 291.925781 272.777344 291.925781 286.808594 291.925781 C 286.808594 291.382812 286.796875 290.890625 286.808594 290.394531 C 286.847656 288.640625 286.734375 286.867188 286.96875 285.136719 C 287.410156 281.902344 288.792969 279.046875 291.109375 276.707031 C 294.773438 272.992188 299.242188 271.429688 304.398438 272.140625 C 308.871094 272.761719 312.445312 274.984375 315.023438 278.730469 C 316.449219 280.800781 317.382812 283.085938 317.558594 285.59375 C 317.691406 287.546875 317.632812 289.507812 317.65625 291.46875 C 317.660156 291.605469 317.671875 291.746094 317.683594 291.90625 C 318.984375 291.796875 320.238281 291.695312 321.488281 291.585938 C 323.398438 291.417969 325.3125 291.257812 327.226562 291.070312 C 328.734375 290.925781 330.230469 290.707031 331.742188 290.597656 C 332.625 290.53125 332.945312 290.019531 333.105469 289.277344 C 333.6875 286.628906 333.972656 283.9375 333.910156 281.214844 Z M 333.910156 281.214844 " fill-opacity="1" fill-rule="nonzero"/><g clip-path="url(#294c93fb23)"><path fill="#ffffff" d="M 229.429688 273.769531 C 221.527344 273.730469 215.53125 280.371094 215.71875 287.460938 C 215.59375 294.386719 221.265625 301.015625 229.335938 301.066406 C 236.917969 301.109375 243.035156 294.945312 243.03125 287.332031 C 243.03125 279.929688 236.851562 273.804688 229.429688 273.769531 Z M 238.820312 288.570312 C 238.8125 288.964844 238.503906 288.855469 238.285156 288.851562 C 235.507812 288.839844 232.734375 288.816406 229.957031 288.804688 C 227.40625 288.796875 224.851562 288.804688 222.289062 288.898438 C 227.683594 289.222656 233.074219 289.546875 238.550781 289.875 C 238.390625 290.351562 238.296875 290.789062 238.085938 291.164062 C 237.996094 291.320312 237.65625 291.402344 237.425781 291.402344 C 233.523438 291.394531 229.617188 291.367188 225.710938 291.347656 C 225.222656 291.34375 224.730469 291.347656 224.246094 291.472656 C 228.632812 291.75 233.019531 292.027344 237.414062 292.304688 C 236.734375 294.742188 232.324219 297.128906 228.886719 296.945312 C 224.433594 296.714844 220.648438 293.367188 219.941406 289.042969 C 219.230469 284.65625 221.675781 280.292969 225.628906 278.644531 C 229.835938 276.890625 234.121094 278.609375 235.929688 280.625 C 232.957031 280.625 230.027344 280.625 227.09375 280.625 C 227.09375 280.660156 227.089844 280.695312 227.089844 280.726562 C 228.128906 280.8125 229.167969 280.894531 230.207031 280.984375 C 232.324219 281.167969 234.4375 281.355469 236.550781 281.554688 C 236.703125 281.570312 236.898438 281.644531 236.988281 281.757812 C 237.6875 282.671875 238.175781 283.695312 238.53125 284.859375 C 233.523438 284.859375 228.609375 284.859375 223.695312 284.859375 C 223.691406 284.890625 223.691406 284.921875 223.691406 284.953125 C 228.71875 285.316406 233.746094 285.679688 238.820312 286.046875 C 238.820312 286.953125 238.828125 287.761719 238.820312 288.570312 Z M 238.820312 288.570312 " fill-opacity="1" fill-rule="nonzero"/></g><g clip-path="url(#b6a6317eb7)"><path fill="#ffffff" d="M 302.40625 273.765625 C 294.609375 273.683594 288.714844 280.058594 288.574219 287.140625 C 288.433594 294.402344 294.175781 300.976562 302.128906 301.058594 C 309.753906 301.136719 315.882812 295.035156 315.910156 287.445312 C 315.933594 279.972656 309.84375 273.84375 302.40625 273.765625 Z M 311.695312 288.8125 C 306.203125 288.8125 300.765625 288.8125 295.332031 288.8125 C 295.328125 288.839844 295.328125 288.867188 295.324219 288.898438 C 300.679688 289.226562 306.035156 289.550781 311.453125 289.886719 C 311.296875 290.332031 311.210938 290.761719 311 291.113281 C 310.890625 291.285156 310.554688 291.402344 310.316406 291.402344 C 306.449219 291.394531 302.582031 291.367188 298.714844 291.34375 C 298.222656 291.34375 297.730469 291.34375 297.238281 291.34375 C 297.238281 291.390625 297.238281 291.433594 297.238281 291.480469 C 301.59375 291.757812 305.949219 292.039062 310.316406 292.316406 C 309.101562 294.914062 305.578125 297.167969 301.734375 296.945312 C 297.1875 296.683594 293.4375 293.25 292.808594 288.835938 C 292.164062 284.316406 294.695312 280.121094 299.039062 278.457031 C 302.921875 276.96875 307.226562 278.726562 308.785156 280.585938 C 307.257812 280.585938 305.734375 280.585938 304.210938 280.585938 C 302.679688 280.585938 301.144531 280.585938 299.613281 280.585938 C 299.609375 280.613281 299.609375 280.636719 299.601562 280.664062 C 299.757812 280.695312 299.914062 280.738281 300.066406 280.753906 C 302.847656 280.988281 305.628906 281.214844 308.40625 281.449219 C 308.773438 281.480469 309.144531 281.503906 309.507812 281.566406 C 309.65625 281.589844 309.84375 281.664062 309.929688 281.78125 C 310.609375 282.707031 311.066406 283.742188 311.433594 284.878906 C 306.410156 284.878906 301.441406 284.878906 296.476562 284.878906 C 296.476562 284.902344 296.472656 284.929688 296.472656 284.949219 C 301.519531 285.316406 306.566406 285.683594 311.695312 286.054688 C 311.695312 287.015625 311.695312 287.917969 311.695312 288.8125 Z M 311.695312 288.8125 " fill-opacity="1" fill-rule="nonzero"/></g><path fill="#ffffff" d="M 272.292969 255.328125 C 275.332031 255.671875 278.378906 255.976562 281.433594 256.246094 C 281.863281 256.285156 282.09375 256.398438 282.207031 256.84375 C 282.476562 257.929688 282.757812 259.019531 283.113281 260.082031 C 283.625 261.613281 284.390625 262.128906 285.996094 262.128906 C 287.238281 262.128906 288.476562 262.117188 289.714844 262.117188 C 295.730469 262.121094 301.746094 262.132812 307.761719 262.117188 C 308.378906 262.117188 309.019531 262.03125 309.613281 261.863281 C 310.726562 261.542969 310.925781 260.796875 310.191406 259.9375 C 310.109375 259.839844 310.015625 259.75 309.925781 259.652344 C 308.539062 258.191406 307.175781 256.710938 305.765625 255.269531 C 302.082031 251.507812 298.375 247.761719 294.683594 244.003906 C 293.957031 243.261719 293.085938 242.925781 292.054688 242.917969 C 288.519531 242.898438 284.984375 242.855469 281.449219 242.828125 C 281.195312 242.824219 280.925781 242.828125 280.679688 242.898438 C 279.554688 243.226562 278.414062 243.324219 277.246094 243.28125 C 276.507812 243.253906 275.765625 243.289062 275.027344 243.289062 C 260.238281 243.289062 245.449219 243.289062 230.660156 243.289062 C 231.007812 243.371094 231.351562 243.4375 231.703125 243.449219 C 236.917969 243.617188 242.132812 243.773438 247.347656 243.9375 C 250.972656 244.050781 254.597656 244.167969 258.222656 244.292969 C 263.210938 244.46875 268.203125 244.652344 273.195312 244.824219 C 275.046875 244.890625 276.894531 244.925781 278.746094 244.992188 C 278.890625 245 279.136719 245.109375 279.160156 245.214844 C 279.335938 245.914062 279.460938 246.625 279.605469 247.351562 C 276.476562 247.351562 273.421875 247.351562 270.371094 247.351562 C 267.300781 247.351562 264.230469 247.351562 261.160156 247.351562 C 261.386719 247.390625 261.617188 247.449219 261.851562 247.460938 C 265.066406 247.621094 268.285156 247.765625 271.496094 247.929688 C 274.191406 248.066406 276.886719 248.226562 279.585938 248.359375 C 279.886719 248.375 279.980469 248.488281 280.050781 248.769531 C 280.386719 250.125 280.761719 251.472656 281.109375 252.824219 C 281.1875 253.132812 281.210938 253.453125 281.257812 253.75 C 277.375 253.75 273.566406 253.75 269.742188 253.75 C 269.804688 253.773438 269.851562 253.804688 269.902344 253.808594 C 271.949219 253.957031 273.996094 254.105469 276.042969 254.253906 C 277.71875 254.378906 279.398438 254.507812 281.074219 254.625 C 281.535156 254.65625 281.792969 254.839844 281.738281 255.328125 C 278.589844 255.328125 275.441406 255.328125 272.292969 255.328125 Z M 272.292969 255.328125 " fill-opacity="1" fill-rule="nonzero"/><g clip-path="url(#451135395b)"><path fill="#ffffff" d="M 251.550781 267.589844 C 253.144531 267.566406 254.734375 267.589844 256.328125 267.59375 C 256.875 267.59375 257.421875 267.59375 258.054688 267.59375 C 258.054688 265.265625 258.054688 262.929688 258.054688 260.558594 C 260.445312 260.558594 262.75 260.558594 265.082031 260.558594 C 265.082031 258.207031 265.082031 255.894531 265.082031 253.492188 C 262.707031 253.492188 260.386719 253.492188 258.027344 253.492188 C 258.027344 251.113281 258.027344 248.828125 258.027344 246.53125 C 255.65625 246.53125 253.320312 246.53125 250.917969 246.53125 C 250.917969 247.007812 250.917969 247.441406 250.917969 247.917969 C 235.195312 247.917969 219.542969 247.917969 203.886719 247.917969 C 203.886719 247.929688 203.886719 247.941406 203.886719 247.949219 C 219.558594 248.46875 235.230469 248.992188 250.929688 249.511719 C 250.929688 249.972656 250.929688 250.371094 250.929688 250.816406 C 240.367188 250.816406 229.832031 250.816406 219.296875 250.816406 C 219.296875 250.84375 219.296875 250.871094 219.296875 250.902344 C 229.832031 251.179688 240.367188 251.457031 250.910156 251.734375 C 250.910156 252.347656 250.910156 252.898438 250.910156 253.496094 C 248.574219 253.496094 246.269531 253.496094 243.871094 253.496094 C 243.871094 254.105469 243.871094 254.664062 243.871094 255.261719 C 224.148438 255.261719 204.523438 255.261719 184.898438 255.261719 C 184.898438 255.269531 184.898438 255.28125 184.898438 255.292969 C 204.523438 255.757812 224.148438 256.226562 243.855469 256.695312 C 243.855469 258.007812 243.855469 259.269531 243.855469 260.597656 C 246.261719 260.597656 248.585938 260.597656 250.902344 260.597656 C 250.902344 262.355469 250.902344 264.046875 250.902344 265.746094 C 227.875 265.746094 204.890625 265.746094 181.90625 265.746094 C 181.90625 265.769531 181.90625 265.789062 181.90625 265.8125 C 204.902344 266.1875 227.898438 266.5625 250.917969 266.933594 C 250.898438 267.53125 251.144531 267.597656 251.550781 267.589844 Z M 251.550781 267.589844 " fill-opacity="1" fill-rule="nonzero"/></g><path fill="#ffffff" d="M 288.0625 233.070312 C 290.824219 230.039062 293.519531 227.078125 296.222656 224.117188 C 296.207031 224.101562 296.1875 224.085938 296.171875 224.070312 C 293.054688 226.613281 289.941406 229.160156 286.789062 231.730469 C 287.210938 232.175781 287.628906 232.613281 288.0625 233.070312 Z M 288.0625 233.070312 " fill-opacity="1" fill-rule="nonzero"/><g clip-path="url(#d8e1f0465e)"><path fill="#ffffff" d="M 280.855469 218.058594 C 280.835938 218.054688 280.8125 218.054688 280.792969 218.050781 C 280.488281 222 280.1875 225.949219 279.882812 229.925781 C 280.511719 229.925781 281.09375 229.925781 281.726562 229.925781 C 281.433594 225.949219 281.144531 222.003906 280.855469 218.058594 Z M 280.855469 218.058594 " fill-opacity="1" fill-rule="nonzero"/></g><path fill="#ffffff" d="M 274.625 231.9375 C 274.824219 231.707031 274.671875 231.574219 274.46875 231.410156 C 272.304688 229.683594 270.144531 227.949219 267.992188 226.203125 C 267.140625 225.507812 266.3125 224.785156 265.472656 224.078125 C 265.445312 224.101562 265.421875 224.128906 265.398438 224.152344 C 268.121094 227.121094 270.839844 230.085938 273.582031 233.078125 C 273.9375 232.691406 274.292969 232.324219 274.625 231.9375 Z M 274.625 231.9375 " fill-opacity="1" fill-rule="nonzero"/><path fill="#ffffff" d="M 287.925781 222.039062 C 287.894531 222.03125 287.867188 222.019531 287.835938 222.007812 C 286.386719 224.6875 284.933594 227.367188 283.46875 230.082031 C 284.042969 230.320312 284.59375 230.546875 285.171875 230.785156 C 286.109375 227.8125 287.019531 224.925781 287.925781 222.039062 Z M 287.925781 222.039062 " fill-opacity="1" fill-rule="nonzero"/><path fill="#ffffff" d="M 278.152344 230.101562 C 276.691406 227.40625 275.238281 224.722656 273.785156 222.042969 C 273.757812 222.054688 273.722656 222.070312 273.695312 222.082031 C 274.613281 224.988281 275.53125 227.886719 276.453125 230.808594 C 277.050781 230.558594 277.589844 230.335938 278.152344 230.101562 Z M 278.152344 230.101562 " fill-opacity="1" fill-rule="nonzero"/><path fill="#ffffff" d="M 288.597656 235.609375 C 288.554688 236.105469 288.738281 236.195312 289.207031 236.125 C 291.28125 235.820312 293.363281 235.550781 295.441406 235.273438 C 296.183594 235.175781 296.929688 235.089844 297.671875 235.003906 C 297.671875 234.96875 297.671875 234.933594 297.667969 234.898438 C 294.660156 234.714844 291.652344 234.53125 288.601562 234.347656 C 288.605469 234.769531 288.632812 235.191406 288.597656 235.609375 Z M 288.597656 235.609375 " fill-opacity="1" fill-rule="nonzero"/><path fill="#ffffff" d="M 273.039062 234.332031 C 269.972656 234.515625 266.976562 234.695312 263.988281 234.875 C 263.984375 234.902344 263.980469 234.929688 263.976562 234.960938 C 266.949219 235.355469 269.921875 235.75 272.949219 236.152344 C 272.980469 235.503906 273.011719 234.90625 273.039062 234.332031 Z M 273.039062 234.332031 " fill-opacity="1" fill-rule="nonzero"/></svg>