<svg xmlns="http://www.w3.org/2000/svg" xmlns:xlink="http://www.w3.org/1999/xlink" width="500" zoomAndPan="magnify" viewBox="0 0 375 374.999991" height="500" preserveAspectRatio="xMidYMid meet" version="1.0"><defs><clipPath id="d640bcae4f"><path d="M 67.589844 71.808594 L 283.589844 71.808594 L 283.589844 285.558594 L 67.589844 285.558594 Z M 67.589844 71.808594 " clip-rule="nonzero"/></clipPath><clipPath id="c495bba186"><path d="M 104.726562 191.703125 L 199.226562 191.703125 L 199.226562 285.453125 L 104.726562 285.453125 Z M 104.726562 191.703125 " clip-rule="nonzero"/></clipPath><clipPath id="86952a0eae"><path d="M 84.84375 89.066406 L 300.84375 89.066406 L 300.84375 302.816406 L 84.84375 302.816406 Z M 84.84375 89.066406 " clip-rule="nonzero"/></clipPath><clipPath id="7bda510962"><path d="M 0.84375 0.0664062 L 216.539062 0.0664062 L 216.539062 213.816406 L 0.84375 213.816406 Z M 0.84375 0.0664062 " clip-rule="nonzero"/></clipPath><clipPath id="8375e799f8"><rect x="0" width="217" y="0" height="214"/></clipPath><clipPath id="c54a18373e"><path d="M 208.46875 230 L 360.71875 230 L 360.71875 292 L 208.46875 292 Z M 208.46875 230 " clip-rule="nonzero"/></clipPath><clipPath id="d8c8258d41"><path d="M 208.46875 246 L 292 246 L 292 268 L 208.46875 268 Z M 208.46875 246 " clip-rule="nonzero"/></clipPath><clipPath id="a5416bd894"><path d="M 306 217.757812 L 309 217.757812 L 309 230 L 306 230 Z M 306 217.757812 " clip-rule="nonzero"/></clipPath></defs><g clip-path="url(#d640bcae4f)"><path fill="#d72638" d="M 140.828125 285.203125 L 67.589844 285.203125 L 210.070312 71.964844 L 283.308594 71.964844 Z M 140.828125 285.203125 " fill-opacity="1" fill-rule="nonzero"/></g><g clip-path="url(#c495bba186)"><path fill="#ffffff" d="M 136.84375 285.28125 L 104.726562 285.28125 L 167.203125 191.777344 L 199.320312 191.777344 Z M 136.84375 285.28125 " fill-opacity="1" fill-rule="nonzero"/></g><g clip-path="url(#86952a0eae)"><g transform="matrix(1, 0, 0, 1, 84, 89)"><g clip-path="url(#8375e799f8)"><g clip-path="url(#7bda510962)"><path fill="#d72638" d="M 143.304688 213.460938 L 216.539062 213.460938 L 74.0625 0.222656 L 0.824219 0.222656 Z M 143.304688 213.460938 " fill-opacity="1" fill-rule="nonzero"/></g></g></g></g><g clip-path="url(#c54a18373e)"><path fill="#ffffff" d="M 360.492188 280.921875 C 360.460938 279.546875 360.433594 279.558594 359.089844 279.277344 C 358.910156 279.238281 358.65625 279.046875 358.617188 278.882812 C 358.035156 276.488281 357.554688 274.070312 356.898438 271.699219 C 356.257812 269.402344 355.449219 267.15625 354.699219 264.894531 C 354.5 264.285156 354.0625 263.867188 353.472656 263.613281 C 350.214844 262.210938 346.953125 260.808594 343.695312 259.402344 C 342.84375 259.035156 341.933594 258.808594 341.25 258.070312 C 338.128906 254.710938 335.003906 251.355469 331.828125 248.042969 C 328.859375 244.949219 325.894531 241.84375 322.519531 239.171875 C 321.339844 238.238281 320.105469 237.507812 318.507812 237.566406 C 316.472656 237.640625 314.4375 237.613281 312.402344 237.628906 C 312.304688 237.628906 312.207031 237.601562 311.992188 237.570312 C 312.355469 237.308594 312.605469 237.082031 312.890625 236.929688 C 313.78125 236.441406 314.078125 235.722656 313.835938 234.75 C 313.421875 233.097656 312.621094 231.761719 310.839844 231.335938 C 308.707031 230.828125 306.5625 230.859375 304.410156 231.273438 C 303.460938 231.460938 302.546875 231.722656 302 232.570312 C 301.613281 233.164062 301.285156 233.816406 301.0625 234.484375 C 300.671875 235.675781 300.957031 236.335938 302.003906 237.023438 C 302.234375 237.175781 302.460938 237.347656 302.820312 237.597656 C 275.074219 237.597656 247.503906 237.597656 219.933594 237.597656 C 221.664062 237.707031 223.402344 237.804688 225.136719 237.855469 C 229.613281 237.972656 234.089844 238.054688 238.570312 238.1875 C 243.949219 238.347656 249.332031 238.554688 254.714844 238.734375 C 259.464844 238.890625 264.21875 239.035156 268.972656 239.183594 C 273.820312 239.332031 278.667969 239.476562 283.511719 239.625 C 288.378906 239.773438 293.242188 239.925781 298.105469 240.066406 C 303.597656 240.230469 309.09375 240.378906 314.589844 240.539062 C 316.347656 240.589844 318.101562 240.644531 319.855469 240.726562 C 320.109375 240.738281 320.40625 240.863281 320.59375 241.03125 C 322.519531 242.757812 324.515625 244.417969 326.324219 246.261719 C 330.511719 250.519531 334.617188 254.863281 338.734375 259.191406 C 339.574219 260.074219 340.453125 260.835938 341.652344 261.191406 C 342.425781 261.421875 343.164062 261.757812 343.917969 262.058594 C 344.136719 262.144531 344.347656 262.261719 344.5625 262.363281 C 344.546875 262.390625 344.527344 262.417969 344.511719 262.445312 C 330.042969 262.445312 315.570312 262.445312 301.199219 262.445312 C 301.652344 262.480469 302.207031 262.542969 302.761719 262.5625 C 309.34375 262.765625 315.929688 262.960938 322.515625 263.160156 C 325.898438 263.265625 329.28125 263.367188 332.667969 263.480469 C 337.179688 263.628906 341.691406 263.820312 346.203125 263.914062 C 347.867188 263.949219 349.417969 264.238281 350.859375 265.0625 C 351.296875 265.3125 351.726562 265.574219 352.25 265.882812 C 350.1875 265.570312 348.265625 265.25 346.335938 264.992188 C 344.742188 264.78125 343.140625 264.648438 341.542969 264.480469 C 341.117188 264.4375 340.949219 264.625 340.914062 265.046875 C 340.851562 265.800781 341.324219 266.25 341.8125 266.671875 C 343.480469 268.097656 345.472656 268.925781 347.535156 269.578125 C 349.640625 270.246094 351.773438 270.835938 354.019531 270.78125 C 354.105469 270.78125 354.246094 270.859375 354.269531 270.929688 C 354.484375 271.605469 354.679688 272.289062 354.886719 272.980469 C 350.96875 272.980469 347.144531 272.980469 343.324219 272.980469 C 345.179688 273.175781 347.03125 273.328125 348.890625 273.472656 C 350.882812 273.628906 352.871094 273.769531 354.863281 273.929688 C 354.976562 273.9375 355.132812 274.054688 355.171875 274.15625 C 355.28125 274.457031 355.335938 274.777344 355.421875 275.117188 C 352.6875 275.117188 350.027344 275.117188 347.257812 275.117188 C 347.433594 275.171875 347.5 275.210938 347.566406 275.21875 C 350.117188 275.488281 352.671875 275.761719 355.230469 276.007812 C 355.550781 276.039062 355.679688 276.136719 355.742188 276.4375 C 355.90625 277.175781 356.101562 277.902344 356.269531 278.636719 C 356.445312 279.414062 356.601562 280.191406 356.777344 281.003906 C 353.160156 281.003906 349.648438 281.003906 346.105469 281.003906 C 346.035156 280.691406 346 280.4375 345.914062 280.195312 C 344.15625 275.257812 340.90625 271.667969 336.132812 269.472656 C 333.640625 268.324219 331 267.929688 328.273438 267.929688 C 314.945312 267.929688 301.621094 267.917969 288.289062 267.90625 C 287.332031 267.90625 286.371094 267.90625 285.410156 267.90625 C 285.410156 267.9375 285.40625 267.960938 285.40625 267.988281 C 297.304688 268.496094 309.207031 269 321.257812 269.515625 C 320.996094 269.675781 320.851562 269.769531 320.707031 269.863281 C 319.867188 270.394531 319.039062 270.945312 318.1875 271.453125 C 317.953125 271.59375 317.644531 271.683594 317.371094 271.683594 C 311.519531 271.683594 305.671875 271.671875 299.820312 271.664062 C 296.875 271.660156 293.929688 271.664062 290.980469 271.664062 C 290.980469 271.695312 290.976562 271.730469 290.976562 271.757812 C 299.414062 272.097656 307.851562 272.4375 316.402344 272.78125 C 315.796875 273.503906 315.296875 274.132812 314.757812 274.726562 C 314.621094 274.878906 314.375 275.015625 314.175781 275.015625 C 306.921875 275.003906 299.664062 274.976562 292.410156 274.953125 C 290.058594 274.945312 287.710938 274.953125 285.359375 274.953125 C 285.359375 274.984375 285.359375 275.015625 285.359375 275.046875 C 294.785156 275.414062 304.207031 275.777344 313.722656 276.144531 C 311.445312 279.679688 310.648438 283.566406 310.851562 287.667969 C 298.496094 287.667969 286.230469 287.667969 273.925781 287.667969 C 273.925781 287.457031 273.933594 287.292969 273.921875 287.132812 C 273.824219 285.660156 273.835938 284.171875 273.605469 282.726562 C 272.917969 278.4375 270.796875 274.917969 267.492188 272.140625 C 264.085938 269.28125 260.121094 267.921875 255.660156 267.925781 C 240.277344 267.9375 224.894531 267.914062 209.511719 267.90625 C 209.304688 267.90625 209.097656 267.90625 208.890625 267.90625 C 208.890625 267.9375 208.890625 267.96875 208.890625 268 C 221.699219 268.65625 234.511719 269.308594 247.34375 269.964844 C 247.308594 270.035156 247.296875 270.089844 247.257812 270.121094 C 247.160156 270.203125 247.058594 270.289062 246.945312 270.351562 C 245.199219 271.289062 243.742188 272.578125 242.425781 274.046875 C 242.265625 274.222656 241.964844 274.363281 241.730469 274.363281 C 232.15625 274.367188 222.585938 274.355469 213.019531 274.34375 C 212.714844 274.34375 212.410156 274.34375 212.105469 274.34375 C 212.105469 274.371094 212.105469 274.394531 212.105469 274.421875 C 221.671875 274.941406 231.242188 275.464844 240.929688 275.992188 C 240.703125 276.339844 240.535156 276.523438 240.453125 276.738281 C 240.160156 277.488281 239.699219 277.84375 238.851562 277.652344 C 238.460938 277.5625 238.039062 277.621094 237.632812 277.621094 C 229.953125 277.605469 222.269531 277.589844 214.585938 277.574219 C 214.390625 277.574219 214.191406 277.574219 213.992188 277.574219 C 213.992188 277.609375 213.988281 277.640625 213.988281 277.675781 C 222.378906 278.214844 230.765625 278.757812 239.222656 279.300781 C 237.84375 282.453125 237.917969 285.792969 237.980469 289.097656 C 231.15625 289.097656 224.433594 289.097656 217.710938 289.097656 C 217.707031 289.128906 217.707031 289.164062 217.703125 289.199219 C 225.292969 290.046875 232.882812 290.898438 240.519531 291.753906 C 240.519531 291.132812 240.507812 290.5625 240.519531 289.992188 C 240.558594 288.21875 240.417969 286.417969 240.6875 284.679688 C 241.355469 280.335938 243.554688 276.84375 247.203125 274.375 C 250.816406 271.925781 254.828125 271.066406 259.117188 272.042969 C 264.980469 273.378906 268.855469 276.957031 270.734375 282.664062 C 271.480469 284.933594 271.453125 287.277344 271.351562 289.628906 C 271.320312 290.285156 271.347656 290.945312 271.347656 291.632812 C 285.359375 291.632812 299.359375 291.632812 313.390625 291.632812 C 313.390625 291.09375 313.382812 290.597656 313.394531 290.101562 C 313.433594 288.351562 313.320312 286.574219 313.554688 284.84375 C 313.996094 281.609375 315.378906 278.757812 317.691406 276.414062 C 321.359375 272.703125 325.824219 271.136719 330.980469 271.847656 C 335.453125 272.46875 339.03125 274.691406 341.609375 278.4375 C 343.035156 280.507812 343.964844 282.792969 344.140625 285.304688 C 344.273438 287.253906 344.214844 289.214844 344.238281 291.175781 C 344.242188 291.3125 344.257812 291.453125 344.265625 291.613281 C 345.566406 291.503906 346.820312 291.402344 348.070312 291.292969 C 349.984375 291.125 351.898438 290.964844 353.8125 290.777344 C 355.316406 290.632812 356.816406 290.414062 358.324219 290.304688 C 359.207031 290.238281 359.53125 289.726562 359.691406 288.984375 C 360.273438 286.335938 360.554688 283.648438 360.492188 280.921875 Z M 360.492188 280.921875 " fill-opacity="1" fill-rule="nonzero"/></g><path fill="#ffffff" d="M 256.011719 273.476562 C 248.113281 273.4375 242.117188 280.078125 242.300781 287.167969 C 242.175781 294.09375 247.851562 300.726562 255.917969 300.773438 C 263.5 300.816406 269.617188 294.652344 269.617188 287.039062 C 269.613281 279.640625 263.433594 273.511719 256.011719 273.476562 Z M 265.402344 288.277344 C 265.398438 288.671875 265.085938 288.5625 264.867188 288.558594 C 262.09375 288.546875 259.316406 288.523438 256.539062 288.515625 C 253.988281 288.503906 251.433594 288.511719 248.875 288.605469 C 254.265625 288.929688 259.660156 289.253906 265.132812 289.582031 C 264.972656 290.058594 264.882812 290.5 264.671875 290.871094 C 264.578125 291.027344 264.238281 291.109375 264.007812 291.109375 C 260.105469 291.101562 256.199219 291.074219 252.296875 291.054688 C 251.804688 291.050781 251.316406 291.054688 250.832031 291.179688 C 255.21875 291.457031 259.605469 291.734375 263.996094 292.011719 C 263.316406 294.449219 258.90625 296.835938 255.472656 296.65625 C 251.015625 296.421875 247.230469 293.074219 246.527344 288.75 C 245.8125 284.363281 248.257812 280 252.210938 278.351562 C 256.417969 276.597656 260.707031 278.316406 262.515625 280.332031 C 259.542969 280.332031 256.609375 280.332031 253.675781 280.332031 C 253.675781 280.367188 253.675781 280.402344 253.675781 280.4375 C 254.714844 280.519531 255.753906 280.601562 256.789062 280.691406 C 258.90625 280.875 261.019531 281.0625 263.136719 281.261719 C 263.289062 281.277344 263.484375 281.351562 263.570312 281.464844 C 264.269531 282.378906 264.757812 283.402344 265.113281 284.566406 C 260.109375 284.566406 255.195312 284.566406 250.277344 284.566406 C 250.277344 284.597656 250.277344 284.628906 250.273438 284.660156 C 255.300781 285.027344 260.332031 285.386719 265.402344 285.753906 C 265.40625 286.660156 265.410156 287.46875 265.402344 288.277344 Z M 265.402344 288.277344 " fill-opacity="1" fill-rule="nonzero"/><path fill="#ffffff" d="M 328.988281 273.472656 C 321.195312 273.390625 315.296875 279.765625 315.160156 286.847656 C 315.019531 294.109375 320.761719 300.6875 328.710938 300.765625 C 336.335938 300.84375 342.464844 294.746094 342.492188 287.152344 C 342.515625 279.679688 336.425781 273.550781 328.988281 273.472656 Z M 338.277344 288.519531 C 332.785156 288.519531 327.351562 288.519531 321.914062 288.519531 C 321.914062 288.546875 321.910156 288.574219 321.910156 288.605469 C 327.261719 288.933594 332.617188 289.261719 338.039062 289.59375 C 337.878906 290.039062 337.796875 290.46875 337.582031 290.820312 C 337.476562 290.992188 337.136719 291.109375 336.902344 291.109375 C 333.035156 291.101562 329.167969 291.074219 325.300781 291.050781 C 324.808594 291.050781 324.316406 291.050781 323.824219 291.050781 C 323.824219 291.097656 323.824219 291.140625 323.824219 291.1875 C 328.179688 291.464844 332.53125 291.746094 336.902344 292.023438 C 335.683594 294.621094 332.160156 296.875 328.316406 296.65625 C 323.769531 296.390625 320.019531 292.957031 319.394531 288.542969 C 318.75 284.023438 321.28125 279.828125 325.621094 278.164062 C 329.503906 276.675781 333.808594 278.433594 335.367188 280.292969 C 333.839844 280.292969 332.316406 280.292969 330.796875 280.292969 C 329.265625 280.292969 327.730469 280.292969 326.199219 280.292969 C 326.195312 280.320312 326.191406 280.34375 326.1875 280.375 C 326.339844 280.402344 326.496094 280.445312 326.652344 280.460938 C 329.429688 280.695312 332.210938 280.921875 334.992188 281.15625 C 335.359375 281.1875 335.726562 281.210938 336.089844 281.273438 C 336.242188 281.296875 336.425781 281.371094 336.511719 281.488281 C 337.195312 282.414062 337.648438 283.449219 338.015625 284.585938 C 332.992188 284.585938 328.027344 284.585938 323.058594 284.585938 C 323.058594 284.609375 323.058594 284.636719 323.058594 284.660156 C 328.105469 285.023438 333.148438 285.390625 338.277344 285.761719 C 338.277344 286.722656 338.277344 287.625 338.277344 288.519531 Z M 338.277344 288.519531 " fill-opacity="1" fill-rule="nonzero"/><path fill="#ffffff" d="M 298.875 255.035156 C 301.917969 255.378906 304.964844 255.683594 308.015625 255.953125 C 308.449219 255.992188 308.675781 256.105469 308.789062 256.550781 C 309.058594 257.636719 309.34375 258.726562 309.695312 259.789062 C 310.207031 261.320312 310.972656 261.835938 312.582031 261.835938 C 313.820312 261.835938 315.0625 261.824219 316.300781 261.824219 C 322.316406 261.828125 328.328125 261.839844 334.34375 261.824219 C 334.960938 261.824219 335.601562 261.742188 336.195312 261.570312 C 337.308594 261.25 337.507812 260.503906 336.777344 259.644531 C 336.691406 259.546875 336.601562 259.457031 336.511719 259.359375 C 335.125 257.898438 333.757812 256.417969 332.351562 254.980469 C 328.664062 251.214844 324.960938 247.46875 321.269531 243.710938 C 320.542969 242.972656 319.671875 242.632812 318.636719 242.625 C 315.101562 242.605469 311.570312 242.5625 308.035156 242.535156 C 307.777344 242.53125 307.507812 242.535156 307.265625 242.605469 C 306.140625 242.933594 304.996094 243.035156 303.832031 242.988281 C 303.089844 242.960938 302.347656 242.996094 301.609375 242.996094 C 286.820312 242.996094 272.035156 242.996094 257.246094 242.996094 C 257.589844 243.078125 257.9375 243.148438 258.285156 243.15625 C 263.5 243.324219 268.714844 243.480469 273.929688 243.644531 C 277.554688 243.757812 281.179688 243.875 284.804688 244 C 289.796875 244.175781 294.789062 244.359375 299.78125 244.53125 C 301.628906 244.597656 303.480469 244.632812 305.328125 244.703125 C 305.476562 244.707031 305.71875 244.816406 305.746094 244.921875 C 305.917969 245.621094 306.046875 246.332031 306.191406 247.058594 C 303.058594 247.058594 300.007812 247.058594 296.953125 247.058594 C 293.886719 247.058594 290.816406 247.058594 287.746094 247.058594 C 287.972656 247.097656 288.203125 247.15625 288.4375 247.167969 C 291.652344 247.328125 294.867188 247.472656 298.082031 247.636719 C 300.777344 247.773438 303.472656 247.933594 306.167969 248.066406 C 306.46875 248.082031 306.566406 248.195312 306.632812 248.476562 C 306.972656 249.832031 307.347656 251.179688 307.691406 252.53125 C 307.769531 252.839844 307.792969 253.160156 307.839844 253.457031 C 303.957031 253.457031 300.148438 253.457031 296.328125 253.457031 C 296.386719 253.480469 296.4375 253.511719 296.488281 253.515625 C 298.53125 253.664062 300.578125 253.8125 302.625 253.960938 C 304.304688 254.085938 305.980469 254.214844 307.65625 254.332031 C 308.117188 254.363281 308.375 254.546875 308.324219 255.035156 C 305.171875 255.035156 302.023438 255.035156 298.875 255.035156 Z M 298.875 255.035156 " fill-opacity="1" fill-rule="nonzero"/><g clip-path="url(#d8c8258d41)"><path fill="#d72638" d="M 278.136719 267.296875 C 279.726562 267.273438 281.320312 267.296875 282.910156 267.300781 C 283.457031 267.304688 284.007812 267.300781 284.636719 267.300781 C 284.636719 264.972656 284.636719 262.636719 284.636719 260.265625 C 287.027344 260.265625 289.335938 260.265625 291.667969 260.265625 C 291.667969 257.914062 291.667969 255.601562 291.667969 253.199219 C 289.289062 253.199219 286.972656 253.199219 284.613281 253.199219 C 284.613281 250.820312 284.613281 248.535156 284.613281 246.238281 C 282.238281 246.238281 279.902344 246.238281 277.5 246.238281 C 277.5 246.714844 277.5 247.148438 277.5 247.625 C 261.78125 247.625 246.125 247.625 230.472656 247.625 C 230.472656 247.636719 230.472656 247.648438 230.472656 247.65625 C 246.144531 248.179688 261.816406 248.699219 277.511719 249.21875 C 277.511719 249.679688 277.511719 250.078125 277.511719 250.523438 C 266.949219 250.523438 256.417969 250.523438 245.882812 250.523438 C 245.882812 250.550781 245.882812 250.582031 245.882812 250.609375 C 256.417969 250.886719 266.953125 251.164062 277.492188 251.441406 C 277.492188 252.054688 277.492188 252.605469 277.492188 253.203125 C 275.15625 253.203125 272.851562 253.203125 270.453125 253.203125 C 270.453125 253.8125 270.453125 254.371094 270.453125 254.96875 C 250.734375 254.96875 231.105469 254.96875 211.480469 254.96875 C 211.480469 254.980469 211.480469 254.988281 211.480469 255 C 231.105469 255.464844 250.734375 255.933594 270.441406 256.402344 C 270.441406 257.714844 270.441406 258.976562 270.441406 260.304688 C 272.84375 260.304688 275.167969 260.304688 277.484375 260.304688 C 277.484375 262.0625 277.484375 263.753906 277.484375 265.453125 C 254.460938 265.453125 231.472656 265.453125 208.492188 265.453125 C 208.492188 265.476562 208.492188 265.496094 208.488281 265.519531 C 231.484375 265.894531 254.484375 266.269531 277.5 266.640625 C 277.484375 267.238281 277.730469 267.304688 278.136719 267.296875 Z M 278.136719 267.296875 " fill-opacity="1" fill-rule="nonzero"/></g><path fill="#d72638" d="M 314.644531 232.777344 C 317.40625 229.75 320.105469 226.785156 322.804688 223.824219 C 322.789062 223.808594 322.773438 223.792969 322.757812 223.777344 C 319.640625 226.324219 316.523438 228.867188 313.371094 231.4375 C 313.792969 231.882812 314.210938 232.320312 314.644531 232.777344 Z M 314.644531 232.777344 " fill-opacity="1" fill-rule="nonzero"/><g clip-path="url(#a5416bd894)"><path fill="#d72638" d="M 307.441406 217.765625 C 307.421875 217.765625 307.398438 217.761719 307.375 217.757812 C 307.074219 221.707031 306.769531 225.65625 306.464844 229.632812 C 307.09375 229.632812 307.675781 229.632812 308.308594 229.632812 C 308.019531 225.65625 307.730469 221.710938 307.441406 217.765625 Z M 307.441406 217.765625 " fill-opacity="1" fill-rule="nonzero"/></g><path fill="#d72638" d="M 301.207031 231.644531 C 301.40625 231.414062 301.257812 231.28125 301.054688 231.117188 C 298.886719 229.390625 296.726562 227.65625 294.574219 225.910156 C 293.722656 225.214844 292.894531 224.492188 292.054688 223.785156 C 292.03125 223.808594 292.007812 223.835938 291.980469 223.859375 C 294.703125 226.828125 297.425781 229.792969 300.167969 232.785156 C 300.519531 232.398438 300.875 232.03125 301.207031 231.644531 Z M 301.207031 231.644531 " fill-opacity="1" fill-rule="nonzero"/><path fill="#d72638" d="M 314.507812 221.746094 C 314.480469 221.738281 314.449219 221.726562 314.417969 221.714844 C 312.96875 224.394531 311.519531 227.074219 310.050781 229.789062 C 310.625 230.027344 311.175781 230.253906 311.753906 230.492188 C 312.691406 227.519531 313.601562 224.632812 314.507812 221.746094 Z M 314.507812 221.746094 " fill-opacity="1" fill-rule="nonzero"/><path fill="#d72638" d="M 304.734375 229.808594 C 303.277344 227.113281 301.824219 224.429688 300.371094 221.75 C 300.339844 221.761719 300.308594 221.777344 300.277344 221.789062 C 301.195312 224.695312 302.113281 227.59375 303.039062 230.515625 C 303.636719 230.265625 304.171875 230.042969 304.734375 229.808594 Z M 304.734375 229.808594 " fill-opacity="1" fill-rule="nonzero"/><path fill="#d72638" d="M 315.179688 235.316406 C 315.136719 235.816406 315.324219 235.902344 315.789062 235.832031 C 317.867188 235.527344 319.949219 235.257812 322.027344 234.980469 C 322.769531 234.882812 323.511719 234.796875 324.253906 234.710938 C 324.253906 234.675781 324.253906 234.640625 324.253906 234.605469 C 321.246094 234.421875 318.238281 234.238281 315.1875 234.054688 C 315.1875 234.476562 315.214844 234.898438 315.179688 235.316406 Z M 315.179688 235.316406 " fill-opacity="1" fill-rule="nonzero"/><path fill="#d72638" d="M 299.621094 234.039062 C 296.554688 234.222656 293.5625 234.402344 290.570312 234.582031 C 290.566406 234.609375 290.5625 234.640625 290.5625 234.667969 C 293.53125 235.0625 296.503906 235.457031 299.535156 235.859375 C 299.566406 235.210938 299.59375 234.617188 299.621094 234.039062 Z M 299.621094 234.039062 " fill-opacity="1" fill-rule="nonzero"/></svg>